<svg width="21" height="21" viewBox="0 0 21 21" fill="none" xmlns="http://www.w3.org/2000/svg">
<path d="M10.5 5.29168C7.62504 5.29168 5.29171 7.62501 5.29171 10.5C5.29171 13.375 7.62504 15.7083 10.5 15.7083C13.375 15.7083 15.7084 13.375 15.7084 10.5C15.7084 7.62501 13.375 5.29168 10.5 5.29168ZM10.5 0.0833435C4.75004 0.0833435 0.083374 4.75001 0.083374 10.5C0.083374 16.25 4.75004 20.9167 10.5 20.9167C16.25 20.9167 20.9167 16.25 20.9167 10.5C20.9167 4.75001 16.25 0.0833435 10.5 0.0833435ZM10.5 18.8333C5.89587 18.8333 2.16671 15.1042 2.16671 10.5C2.16671 5.89584 5.89587 2.16668 10.5 2.16668C15.1042 2.16668 18.8334 5.89584 18.8334 10.5C18.8334 15.1042 15.1042 18.8333 10.5 18.8333Z" fill="black"/>
</svg>
